<svg width="66" height="62" fill="none" xmlns="http://www.w3.org/2000/svg"><path d="M16.974 3.278a11.393 11.393 0 000 16.092L44.46 46.825c1.878 1.91 1.878 5.019 0 6.864a4.866 4.866 0 01-6.896 0L23.837 39.961l3.432-3.432L15.84 25.068l-1.165 1.166-4.565-4.598a3.302 3.302 0 00-4.63 0L.947 26.234c-1.263 1.327-1.263 3.302 0 4.565l4.533 4.565-1.101 1.165L15.84 47.96l3.432-3.433L33 58.32a11.432 11.432 0 0016.026 0c4.436-4.468 4.436-11.656 0-16.059L21.54 14.772c-1.878-1.91-1.878-5.018 0-6.864a4.866 4.866 0 016.896 0l13.728 13.728-3.432 3.432L50.16 36.529l1.165-1.165 4.565 4.597c1.263 1.263 3.335 1.263 4.63 0l4.533-4.597c1.263-1.328 1.263-3.303 0-4.565l-4.533-4.565 1.101-1.166L50.16 13.639l-3.432 3.432L33 3.278a11.432 11.432 0 00-16.026 0zM3.246 28.5l4.565-4.565 4.597 4.565-4.597 4.597L3.246 28.5zm50.346 4.597l4.597-4.597 4.565 4.597-4.565 4.566-4.597-4.566z" fill="#000"/></svg>