<svg fill="none" height="384" width="806" xmlns="http://www.w3.org/2000/svg">
  <mask id="a" height="132" maskUnits="userSpaceOnUse" width="262" x="274" y="179">
    <path d="M274 179h262v132H274z" fill="#ecf6ff"/>
  </mask>
  <path d="M0 24h262v148H0zM543 24h263v148H543zM0 179h262v148H0zM543 179h263v148H543z" fill="#ecf6ff"/>
  <path d="M136.2 257a.7.7 0 00-.5 0h-.1l-.6-.5c-.3-.2-.6-.5-1-.6-.5-.2-1-.2-1.8 0a3 3 0 00-1.8 0c-.2 0-.3 0-.5.2l-.2.1-.1.1v.1l-.2.1-.3.3h-.1l-.1.1h-.2a1 1 0 00-.3 0l-.4.4.1.5.3.2.2.1v.1l.2.2.1.2c.1 0 0 0 0 0l.1.1.1.1v.1l.2.1v.1l.2.1.2.2h.1l.1.2a3.7 3.7 0 00.8.3l1.5.2c1.6 0 2.6-.5 3.3-1.5.2-.4.4-.5.5-.6h.2c.2-.2.3-.3.3-.5s0-.3-.3-.4zm-7.9 1zM125.6 250.1a2 2 0 100-3.8 2 2 0 000 3.8zM139 250.1a2 2 0 100-3.8 2 2 0 000 3.8z" fill="#2d3b48"/>
  <path d="M149.4 255h.8a7.2 7.2 0 002.5-14l1-3.9.8 2.9c0 .2.2.3.3.3.3 0 .4-.2.4-.4 0-2 0-4.2-.2-6.4a74.4 74.4 0 011.3 2.2h.1c.2 0 .3-.3.3-.4-.7-5.1-1.7-10-5.4-12.9 1.6 0 3.2.2 4.9.4.2 0 .4-.2.4-.4 0-.1 0-.4-.2-.4-3-1.1-6.6-2.2-10-2.6a52.6 52.6 0 00-3.8-6.2.4.4 0 00-.5-.2c-.2.1-.2.4-.2.5l1 2.8c-.7-.6-1.6-1-2.6-1.4a37.5 37.5 0 00-29.6 6c-.2 0-.2.3-.1.5l.3.2h.2l4.8-1.7a31.2 31.2 0 00-8.9 11.7c0 .1 0 .4.2.5h.2l.3-.1a63 63 0 014-4.2 37.5 37.5 0 00-2.4 13c0 .1.1.3.3.3.3 0 .4 0 .5-.3.4-1.7.9-3.2 1.4-4.7.2 1.4.6 3 1.1 4.6a7.2 7.2 0 001.7 14.2h.7c1.2 3 3 5.5 5.5 7.5l-4.5 3a9.8 9.8 0 00-4.3 8.1v.1c0 4.6 3 8.5 7.4 9.5a55.4 55.4 0 0025.2.2l1-.2c4.4-1 7.5-5 7.5-9.6 0-3.2-1.7-6.3-4.4-8.1l-4.5-3a18 18 0 005.5-7.4zm1.3-6.9v-4.3a4 4 0 010 8zm-37 0v3.6a4 4 0 010-7.9zM147 247c0 1.7-.7 3.2-1.9 4.3s-2.8 1.8-4.4 1.7a6 6 0 01-5.8-5.8v-.2c0-1.1.9-2 2-2h8c1.2 0 2 .9 2 2zm-27.4-25.7c3.2-2.4 6.3-3.2 6.5-3.2.4-.1.8.1 1 .6 0 .4-.2.8-.7 1 0 0-3 .7-5.8 2.9l-.5.2a.8.8 0 01-.6-.3.8.8 0 01.1-1.2zm-3.6 5.6a.8.8 0 01-.3-1.1c.4-.8 1-1.5 1.5-2.1.3-.4.8-.4 1.1-.1.4.3.4.8.1 1.1-.5.6-1 1.2-1.3 1.9a.8.8 0 01-1.1.3zm1 15.4v-.6h3.2c5.3 0 10.4-1.7 14.5-5 1.6-1.2 3.9-1 5.3.5 2 2.1 4.6 3.6 7.5 4.2v2c-.7-.5-1.6-.8-2.5-.8h-8.1c-1.7 0-3 1-3.8 2.2h-1.7a4.4 4.4 0 00-3.8-2.2h-8.1c-1 0-1.9.3-2.6.8v-1.1zm.5 4.7c0-1 .9-2 2-2h8c1.2 0 2 1 2 2 0 1.7-.6 3.2-1.8 4.3s-2.8 1.8-4.4 1.7a6 6 0 01-5.8-5.8v-.2zm19.7 15.7h-.1l-.3.1-.3.1h-.2l-.4.2h-.5l-.6.2h-.4-.1l-1 .2h-.5-1.1-.5-.6l-.5-.1-.5-.1-.5-.1h-.2l-.3-.1h-.2a3 3 0 01-.4-.1l-.2-.1h-.2l-.2-.2h-.2c-4.4-1.6-8-5.1-9.5-9.6a8.4 8.4 0 005.5 2.3h.3a8.4 8.4 0 008.4-8.2h.1c.1-.1.3-.1.4 0v.1c.3 4.4 3.8 8 8.2 8h.3c2.2 0 4.2-.7 5.8-2.2-1.5 4.5-5 8-9.5 9.6z" fill="#2d3b48"/>
  <path d="M273 179h262v148H273zM274 24h262v148H274z" fill="#ecf6ff"/>
  <g mask="url(#a)">
    <path d="M299.3 218.7H545V296c0 2.1-1.7 3.8-3.7 3.8H303c-2 0-3.8-1.7-3.8-3.8z" stroke="#ecf6ff" stroke-width=".7"/>
    <path d="M299 208a4 4 0 014-4h238.3a4 4 0 014 4v10.3H299z" fill="#ccd0d3"/>
    <path d="M299 297.9a4 4 0 004 4.1h238a4 4 0 004-4v-79H299z" fill="#fff"/>
    <path d="M309.3 238l4-2v.7l-2.8 1.3 2.7 1.4v.6zm4.8 1.8v-.7l.9.3.8.1.7-.1c.2-.1.2-.3.2-.4v-.3l-.6-.3-.2-.1-.5-.2-1-.5a1 1 0 01-.2-.6c0-.4.2-.7.4-.9.3-.2.7-.3 1.3-.3.4 0 .8 0 1.2.2v.6c-.4-.2-.8-.2-1.2-.2l-.7.1c-.2.1-.3.2-.3.4 0 .1.1.3.3.3l.6.3.5.2.9.5c.2.2.3.4.3.7 0 .4-.2.6-.5.9-.2.2-.7.3-1.3.3l-1.6-.3zm8 0a4 4 0 01-1.4.3c-.4 0-.8 0-1-.3a2 2 0 01-.8-.7c-.2-.4-.3-.7-.3-1.1 0-.7.2-1.2.6-1.6a2 2 0 011.5-.6c.4 0 .9 0 1.3.2v.7l-1.2-.3-.8.1-.5.6a1.8 1.8 0 00.2 1.9c.2.3.6.5 1 .5h.5l.8-.3zm1.3.2v-4h.7v.8l.8-.8.9-.2.7.1v1.5h-.6v-1h-.3c-.3 0-.5.1-.8.3l-.7 1v2.3zm5.3 0v-3.5h-1v-.6h1.7v3.5h1.2v.6zm0-5.6v-.3l.4-.1h.3l.1.4-.1.4h-.6l-.2-.4zm4 2.4c.3-.3.5-.6.8-.7l.8-.3c.3 0 .6.1 1 .4.2.3.3.8.3 1.4 0 .5 0 .9-.2 1.3l-.8.8c-.3.3-.7.4-1.1.4a6.4 6.4 0 01-.8-.1v1.6h-.6v-5.7h.6zm0 .8v1.8h.7c.4 0 .8 0 1-.4.3-.3.5-.8.5-1.3 0-.4 0-.7-.2-1l-.6-.3-.7.4-.7.8zm7.3 2.2l-.7.3h-.4c-.3 0-.5 0-.8-.2l-.5-.4-.2-1v-1.7h-1v-.6h1v-1.6h.7v1.6h1.8v.6h-1.8v1.7l.1.7.3.2.5.1c.3 0 .7 0 1-.3zm4.8-1.8l-4 2v-.6l2.7-1.4-2.7-1.4v-.6zm-29.6 13v-5.3H314v-.6h1.9v5.3h1.2v.6zm6.8-.3c-.6.3-1 .4-1.6.4-.3 0-.7 0-1-.3a2 2 0 01-.6-.7c-.2-.4-.3-.7-.3-1.1 0-.4 0-.8.2-1.1.2-.4.4-.6.7-.8.3-.2.7-.3 1-.3.5 0 1 .2 1.2.5.3.4.4.9.4 1.6v.2h-2.8c0 .2 0 .5.2.7.1.3.3.5.5.6l.6.1c.5 0 1-.1 1.5-.4zm-2.7-2.1h2v-.1c0-.4 0-.6-.2-.8s-.4-.3-.7-.3a1 1 0 00-.7.3c-.2.2-.4.5-.4.9zm7.2 2.2l-.7.3h-.4c-.3 0-.5 0-.8-.2l-.5-.4-.2-1v-1.7h-1v-.6h1v-1.6h.7v1.6h1.8v.6h-1.8v1.7l.1.7.3.3h.5c.3 0 .7 0 1-.3zm31.8-2.7v.6h-4v-.6zm0 1.3v.5h-4v-.5zm-49 10.6l4-2v.7l-2.8 1.3 2.7 1.4v.6zm5 2.2h-.7l3.6-6h.7zm4.3-.4v-.7l.9.3.8.1.7-.1c.2-.1.2-.3.2-.4v-.3l-.6-.3-.2-.1-.5-.2-1-.5a1 1 0 01-.2-.7c0-.3.2-.6.4-.8.3-.2.7-.3 1.3-.3.4 0 .9 0 1.2.2v.6c-.4-.2-.8-.2-1.2-.2l-.7.1c-.2.1-.2.2-.2.4 0 .1 0 .3.2.3l.7.3.4.2.9.5c.2.2.3.4.3.7 0 .4-.2.6-.5.9-.2.2-.7.3-1.3.3l-1.6-.3zm8 0a4 4 0 01-1.4.3c-.4 0-.7 0-1-.3a2 2 0 01-.8-.7c-.2-.4-.3-.7-.3-1.1 0-.7.2-1.2.6-1.6a2 2 0 011.5-.6c.4 0 .9 0 1.3.2v.7l-1.2-.3-.7.1-.6.6a1.8 1.8 0 00.2 1.9c.2.3.6.5 1.1.5h.4l.8-.3zm1.3.2v-4h.7v.8l.8-.8.9-.2.7.1v1.5h-.6v-1h-.3c-.3 0-.5.1-.8.3l-.7 1v2.3zm5.4 0v-3.5H332v-.6h1.8v3.5h1.2v.6zm-.2-5.6l.2-.3.3-.1h.3l.2.4-.2.4h-.3-.3l-.2-.4zm4.1 2.4c.3-.3.5-.6.8-.7l.8-.3c.3 0 .7.1 1 .4.2.3.3.8.3 1.4 0 .5 0 .9-.2 1.3l-.8.8c-.3.3-.6.4-1 .4a6.4 6.4 0 01-.9-.1v1.6h-.6v-5.7h.6zm0 .8v1.8h.7c.4 0 .8 0 1-.4.4-.3.5-.8.5-1.3 0-.4 0-.7-.2-1l-.6-.3-.7.4-.7.8zm7.4 2.2l-.7.3h-.5c-.2 0-.5 0-.7-.2l-.6-.4-.2-1v-1.7h-1v-.6h1v-1.6h.7v1.6h1.8v.6h-1.8v1.7l.1.7.3.2.5.1c.3 0 .7 0 1-.3zm4.7-1.8l-4 2v-.6l2.8-1.4-2.8-1.4v-.6zm-40 22l4-2v.7l-2.8 1.3 2.7 1.4v.6zm4.8 2v-6h.7v2.8c.2-.3.4-.6.7-.7.2-.2.5-.3.8-.3.2 0 .4 0 .6.2.2 0 .4.2.4.4l.2.4v3.2h-.7v-2.4-.7c0-.2-.2-.3-.3-.4a.5.5 0 00-.3 0c-.2 0-.5 0-.8.3-.2.2-.5.5-.6.8v2.4zm6-.6V279l-.6.5-.8.3v-.6c.5-.2 1-.5 1.4-.9h.7v5.1h1.3v.6h-3.4v-.6zm6.7-1.4l-4 2v-.6l2.7-1.4-2.7-1.4v-.6zm59.1 0l4-2v.7l-2.7 1.3 2.7 1.4v.6zm5 2.2h-.6l3.6-6h.6zm4.3-.2v-6h.7v2.8c.2-.3.4-.6.7-.7l.8-.3c.3 0 .5 0 .7.2.2 0 .3.2.4.4l.1.4v3.2h-.6v-2.4l-.1-.7-.2-.4a.5.5 0 00-.3 0c-.3 0-.5 0-.8.3l-.7.8v2.4zm6-.6V279l-.5.5-.8.3v-.6c.5-.2 1-.5 1.4-.9h.6v5.1h1.4v.6h-3.4v-.6zm6.7-1.4l-4 2v-.6l2.8-1.4-2.8-1.4v-.6z" fill="#2d37f5"/>
    <path d="M332.1 251v-4h.7v.8c.2-.3.4-.6.7-.7l.8-.3c.3 0 .5 0 .7.2l.4.5.1 1.2v2.3h-.7v-2.4-.7l-.2-.4a.5.5 0 00-.4 0c-.2 0-.5 0-.7.3l-.7.8v2.4zm7.2-1c-.2.4-.4.7-.7.9l-.8.2c-.4 0-.7-.1-1-.4a2.9 2.9 0 01-.1-2.6l.7-1c.3-.1.7-.3 1.1-.3h.6l.2.1h.7v2.9l.1 1.2h-.7v-1zm0-.7v-1.8h-.7c-.4 0-.7 0-1 .4a2 2 0 00-.4 1.3c0 .4 0 .7.2 1 .1.2.3.3.5.3s.5-.1.7-.4l.7-.8zm1.5 1.7v-4h.6v.8l.5-.8.5-.2c.2 0 .4 0 .5.2l.2.7v.2l.3-.6.3-.4.5-.1c.1 0 .3 0 .4.2l.2 1v3h-.6v-2.8-.5l-.1-.2h-.1c-.2 0-.3 0-.5.3l-.4 1v2.2h-.6v-2.8-.6l-.3-.1c-.1 0-.2 0-.4.3l-.4.8v2.4zm8.2-.3c-.5.3-1 .4-1.5.4-.4 0-.7 0-1-.3a2 2 0 01-.7-.7 2.4 2.4 0 010-2.2c.2-.4.4-.6.7-.8.3-.2.6-.3 1-.3.5 0 .9.2 1.2.5.3.4.4.9.4 1.6v.2h-2.8c0 .2 0 .5.2.7 0 .3.2.5.4.6l.7.1c.4 0 1-.1 1.4-.4zm-2.7-2.1h2v-.1c0-.4 0-.6-.2-.8a.8.8 0 00-.6-.3 1 1 0 00-.8.3c-.2.2-.3.5-.4.9z" fill="#439f31"/>
    <path d="M365.6 247.4h-.5l-.4-2.3h1.3zm2.7 3.6l-.6-4h.6l.4 2.4.1.6.1-.6.7-2.5h.6l.7 2.5.1.6.1-.6.4-2.5h.5l-.6 4.1h-.7l-.7-2.6-.2-.6-.1.6-.7 2.6zm6 .1c-.5 0-1-.2-1.3-.6-.4-.4-.6-1-.6-1.5s.2-1.2.6-1.6.8-.6 1.4-.6c.6 0 1 .2 1.4.6.3.4.5 1 .5 1.6s-.2 1-.5 1.5c-.4.4-.8.6-1.4.6zm0-.6c.4 0 .7-.1 1-.4.2-.3.3-.7.3-1.1 0-.5-.1-1-.4-1.2a1 1 0 00-.8-.4 1 1 0 00-.9.4c-.2.3-.3.7-.3 1.2 0 .4 0 .8.3 1.1.2.3.5.4.9.4zm3.2.5v-4h.7v.8l.8-.8.9-.2.7.1v1.5h-.6v-1h-.3c-.3 0-.5.1-.8.3l-.7 1v2.3zm5.3 0v-5.3h-1.2v-.6h1.9v5.3h1.3v.6zm6.1-1c-.2.4-.4.7-.7.9l-.8.2c-.3 0-.7-.1-1-.4-.2-.3-.3-.8-.3-1.4 0-.4 0-.9.2-1.2l.8-1c.3-.1.6-.3 1-.3h.7l.1.1v-1.8h.7v5.9h-.7zm0-.7v-1.8h-.6c-.4 0-.8 0-1 .4a2 2 0 00-.5 1.3c0 .4 0 .7.2 1l.6.3c.2 0 .4-.1.7-.4l.6-.8zm3.8-2h-.5l-.4-2.2h1.2z" fill="#307821"/>
    <path d="M396.2 252.6v-.5c.2 0 .3 0 .4-.2l.2-.3.1-.5c-.2 0-.4 0-.5-.2a.6.6 0 01-.1-.4l.1-.4.5-.2c.2 0 .3.1.5.3l.2.7c0 .3 0 .5-.2.8 0 .2-.2.4-.4.6-.2.2-.5.3-.8.3zm.7-4.6c-.2 0-.4 0-.5-.2l-.1-.4.1-.4a.6.6 0 01.9 0l.1.4-.1.4-.4.2zm-69.4 36v-5.7h.7v2.5h2.1v-2.5h.8v5.7h-.8v-2.7h-2v2.7zm8-.3c-.5.3-1 .4-1.5.4-.4 0-.7 0-1-.3a2 2 0 01-.7-.7 2.4 2.4 0 010-2.2c.1-.4.4-.6.7-.8.3-.2.6-.3 1-.3s.8.2 1.1.5c.3.4.5.9.5 1.6v.2h-2.8l.1.7c.1.3.3.5.5.6l.7.1c.4 0 .9-.1 1.4-.4zm-2.7-2.1h2v-.1c0-.4 0-.6-.2-.8s-.4-.3-.7-.3a1 1 0 00-.7.3c-.2.2-.3.5-.4.9zm5 2.4v-5.3h-1.3v-.6h1.9v5.3h1.3v.6zm4.4 0v-5.3H341v-.6h2v5.3h1.2v.6zm5.1.1c-.6 0-1-.2-1.4-.6a2.5 2.5 0 010-3.1c.4-.4.8-.6 1.4-.6.6 0 1 .2 1.4.6s.6 1 .6 1.6-.2 1-.6 1.5c-.3.4-.8.6-1.4.6zm0-.6c.4 0 .7-.1.9-.4.2-.3.3-.7.3-1.1 0-.5 0-1-.3-1.2a1 1 0 00-.9-.4 1 1 0 00-.9.4c-.2.3-.3.7-.3 1.2 0 .4.1.8.3 1.1.3.3.6.4 1 .4zm8.8-1.8c.2 0 .4.2.5.3l.2.4.1.4v.5l-.2.5v.5l.1.3.8.2h.5v.6h-.5c-.7 0-1.1-.1-1.3-.4l-.3-.7v-.7l.2-.4v-.2-.2c0-.3 0-.4-.2-.6-.2-.2-.4-.2-.8-.2h-.3v-.6h.3c.4 0 .6-.1.8-.3l.2-.5v-.5l-.1-.3v-.3l-.1-.5c0-.2 0-.5.3-.7.2-.2.6-.3 1.3-.3h.5v.5h-.5c-.4 0-.6 0-.8.2l-.1.4v.5l.1.4.1.5v.5l-.3.3-.5.4zm3 2.3v-4h.7v.8c.2-.3.5-.6.8-.7.2-.2.5-.3.8-.3.2 0 .4 0 .6.2l.5.5v3.5h-.6v-2.4-.7l-.3-.4a.5.5 0 00-.3 0c-.2 0-.5 0-.8.3l-.7.8v2.4zm7.3-1c-.2.4-.5.7-.8.9l-.8.2c-.3 0-.6-.1-1-.4-.2-.3-.3-.8-.3-1.4 0-.4 0-.9.2-1.2l.8-1c.3-.1.7-.3 1.1-.3h.6l.2.1h.6v2.9l.2 1.2h-.7l-.1-1zm0-.7v-1.8h-.7c-.4 0-.8 0-1 .4a2 2 0 00-.5 1.3c0 .4 0 .7.2 1l.6.3c.2 0 .4-.1.7-.4l.7-.8zm1.5 1.7v-4h.6v.8l.5-.8.5-.2c.2 0 .3 0 .5.2l.1.7v.2l.3-.6.4-.4.4-.1c.2 0 .3 0 .5.2l.2 1v3h-.6v-2.8-.5l-.2-.2h-.1c-.1 0-.3 0-.4.3l-.5 1v2.2h-.5v-2.8l-.1-.6-.2-.1c-.1 0-.3 0-.4.3l-.4.8v2.4zm8.2-.3c-.6.3-1 .4-1.6.4-.3 0-.7 0-1-.3a2 2 0 01-.6-.7 2.4 2.4 0 010-2.2c.1-.4.3-.6.6-.8.3-.2.7-.3 1-.3.5 0 1 .2 1.2.5.3.4.5.9.5 1.6v.2h-2.9c0 .2 0 .5.2.7.1.3.3.5.5.6l.6.1c.5 0 1-.1 1.5-.4zm-2.7-2.1h2v-.1c0-.4 0-.6-.2-.8a.8.8 0 00-.7-.3 1 1 0 00-.7.3c-.2.2-.4.5-.4.9zm5.7 0a2 2 0 01-.5-.3l-.2-.3v-.5-.9l.1-.5-.1-.4-.7-.2h-.6v-.5h.6c.6 0 1 0 1.3.3.2.2.3.5.3.7l-.1.5v.3l-.1.3v.2l-.1.3c0 .2 0 .4.2.5.2.2.4.3.8.3h.4v.6h-.4c-.3 0-.6 0-.8.2l-.2.6v.4l.1.4v.2l.2.5c0 .3-.1.5-.3.7-.2.3-.7.4-1.3.4h-.6v-.6h.6c.3 0 .6 0 .7-.2l.1-.3v-.5l-.1-.5v-.5a1 1 0 01.2-.8l.5-.3zm4 .8l-.2-4h1l-.3 4zm.3 1.8c-.2 0-.3 0-.4-.2a.5.5 0 01-.1-.4l.1-.3a.5.5 0 01.8 0l.1.3-.1.4-.4.2z" fill="#000"/>
    <g fill="#fff">
      <circle cx="306.5" cy="211.5" opacity=".3" r="2"/>
      <circle cx="312.6" cy="211.5" opacity=".3" r="2"/>
      <circle cx="318.8" cy="211.5" opacity=".3" r="2"/>
    </g>
  </g>
  <path d="M0 334h806v44a6 6 0 01-6 6H6a6 6 0 01-6-6z" fill="#1e3041"/>
  <path d="M465.2 351.8v3h5c1 0 1.7.8 1.7 1.7v10c0 1-.7 1.7-1.7 1.7h-11.6c-1 0-1.7-.8-1.7-1.7v-10c0-1 .7-1.7 1.7-1.7h5v-3l-1 1c-.3.3-.8.3-1.1 0a.8.8 0 010-1.2l2.3-2.4.6-.2c.2 0 .4 0 .6.2l2.4 2.4c.3.3.3.9 0 1.2-.4.3-1 .3-1.2 0zm-1.6 4.7h-5v10h11.6v-10h-5v3.3c0 .5-.3.9-.8.9a.8.8 0 01-.8-.9zm-2.5-1.7v1.7h6.6v-1.7zm2.5 0h1.6v1.7h-1.6zM565.4 353h-12a2.5 2.5 0 00-2.5 2.5v6.7a2.5 2.5 0 002.5 2.5h.9v2.2c0 1 .6 1.3 1.4.6l3-2.8h6.7a2.5 2.5 0 002.5-2.5v-6.7a2.5 2.5 0 00-2.5-2.5zm-9.4 7a1 1 0 110-2 1 1 0 010 2zm3.4 0a1 1 0 111-1c0 .6-.5 1-1 1zm3.4 0a1 1 0 110-2 1 1 0 010 2zM273.4 362.8c1.8 0 3.3-1.4 3.3-3.2v-5.4c0-1.8-1.5-3.2-3.3-3.2a3.2 3.2 0 00-3.2 3.2v5.4c0 1.8 1.5 3.2 3.2 3.2z" fill="#fff"/>
  <path d="M277.7 358v1.6a4.3 4.3 0 01-8.6 0V358H267v1.6c0 3.2 2.3 5.8 5.4 6.3v2.3h2.1v-2.3c3-.5 5.4-3.1 5.4-6.3V358zM372.5 358.2v3.9l5.4 2.8v-9.2zM369.5 355h-9.1c-.8 0-1.5.7-1.5 1.5v7.6a1.5 1.5 0 001.5 1.5h9.1c.4 0 .8-.1 1-.4s.5-.7.5-1v-7.7c0-.8-.7-1.5-1.5-1.5z" fill="#fff"/>
  <path d="M402 95.2a4.1 4.1 0 005.8 0c.5-.5.5-1.4 0-2-.6-.5-1.5-.5-2 0-.3.3-.6.4-1 .4s-.6-.2-.8-.4c-.6-.5-1.5-.5-2 0s-.6 1.5 0 2zM409.6 100.5a.9.9 0 00-.6-.2h-.2c-.2 0-.4-.3-.7-.5l-1.1-.7c-.6-.2-1.3-.1-2.2.1-.8-.2-1.5-.3-2.1-.1a2 2 0 00-.5.2l-.3.2-.1.2h-.1l-.2.2-.3.3h-.1l-.2.1h-.2-.3l-.5.5.1.6.4.2.2.2.1.1.1.2h.1v.2l.2.1v.1h.1v.2h.1l.1.1h.1v.1l.1.1.3.2.1.1.1.1a4.6 4.6 0 00.5.3l.5.1c.5.2 1 .2 1.7.2 2 0 3-.5 4-1.8.2-.4.4-.5.5-.6h.2c.2-.2.4-.4.4-.6 0-.2-.1-.4-.3-.5zm-9.3 1.1zM410.4 87.7c1-1 2.8-1 3.9 0 .2.3.6.4 1 .4s.7-.1 1-.4c.5-.5.5-1.4 0-2a5.6 5.6 0 00-8 0c-.5.6-.5 1.5 0 2 .6.6 1.5.6 2 0zM395.5 87.7c1-1 2.8-1 3.8 0 .3.3.7.4 1 .4s.8-.1 1-.4c.6-.5.6-1.4 0-2a5.6 5.6 0 00-7.8 0c-.6.6-.6 1.5 0 2 .5.6 1.4.6 2 0z" fill="#2d3b48"/>
  <path d="M438.6 84.8c2.7-7.9 1.5-15.5-3.6-22.5-10.3-14.4-25.3-17.4-35.5-14a19.1 19.1 0 00-11.6 9.6h-1c-4.8 0-9.1 1.9-12.3 5.3a19 19 0 00-4.6 12.7c0 6.1 1.8 10.8 5.3 13.9 0 4.7 3.8 8.5 8.5 8.5h.8a22 22 0 006.4 8.8l-5.2 3.6c-3.2 2.1-5.1 5.6-5.1 9.5v.1a11.4 11.4 0 008.1 11h.1l.6.2 2.8.6a64.5 64.5 0 0026.8-.5l1-.2.6-.1a11.5 11.5 0 003.1-20.6l-5-3.4c2.3-1 5.8-3.4 9.4-6.8 3.5-3.4 8.1-8.8 10.4-15.7zm-5.5-17c.2.4.2.8.3 1.3.2.5-.2 1-.7 1l-.2.1a1 1 0 01-1-.7l-.2-1.3a1 1 0 01.7-1.2 1 1 0 011.1.7zm-13.4-13.6a1 1 0 011.2-.6A21 21 0 01432 64a1 1 0 11-1.7.8c-3.6-7.4-10-9.5-10-9.6a1 1 0 01-.6-1.1zM383 94.5a4.7 4.7 0 01-4-5.4v-.2l.1-.2v-.2l.1-.2.1-.2V88l.2-.1v-.2c.5-.7 1-1.3 1.7-1.7l.4-.2.3-.2h.4v-.1l.3-.1h.4v9.2zm3.9-2.6l-.1-.8V78.8v-.6-.2-.3-.3-.2c.3-3.5 1.7-6.8 3.7-9.5 6.3.2 12 2 17.1 5.5a50.7 50.7 0 0115.1 17.6V92a18 18 0 01-12.1 15.2h-.2l-.3.1-.4.1h-.2l-.4.2h-.2l-.4.1-.7.1-.5.1h-.1l-1.2.2H404.3 403.7h-.7l-.6-.1h-.1l-.5-.1h-.1a27.3 27.3 0 01-.7-.2h-.4l-.2-.1-.4-.1-.3-.1-.3-.1-.2-.1h-.2a17.9 17.9 0 01-12-15.4zm21.2 31.9a6.2 6.2 0 01-6.7 0 17.5 17.5 0 00-5.5-2.4v-11.3l1.8.8h.2l.3.1.3.1.3.1.5.2h.1l.5.1h.2l.5.1h.1l.6.2 1.3.2h4.8l1.3-.3h.6l.1-.1.5-.1h.1l.6-.2.2-.1.4-.1.3-.1h.2l.4-.2 1-.4v11.2a17 17 0 00-5 2.2zm-23.7-3.6c0-2.6 1.2-5 3.4-6.4l4.3-2.9v10h-.4c-2.4 0-4.8.6-7 1.6-.2-.7-.3-1.4-.3-2.2zm37.3-6.4a7.7 7.7 0 013.1 8.7c-2.2-1-4.6-1.5-7-1.5h-1v-10.3zM130 90.1a2.2 2.2 0 100-4.3 2.2 2.2 0 000 4.3zM145 90.1a2.2 2.2 0 100-4.3 2.2 2.2 0 000 4.3zM136 101.4h3c.5 0 .9-.4.9-1 0-.4-.4-.8-1-.8H136c-.5 0-.9.4-.9.9s.4.9 1 .9z" fill="#2d3b48"/>
  <path d="M158.5 98.3v-1.5a8.2 8.2 0 000-16.3c-.1-8.3-5-15.4-12-18.6V61c.5-3.2-2.6-6-6.6-6h-4.8c-4 0-7.1 2.8-6.7 6l.1 1a21 21 0 00-12 18.5 8.2 8.2 0 000 16.3v1.5c0 3.7 1.6 7 4.4 9.4l4.4 3.7-6.2 4.1a11 11 0 00-4.9 9.2v.1a11 11 0 008.5 10.8 62.7 62.7 0 0028.5.2l1-.3a11 11 0 003.6-20l-6.3-4 4.5-3.8a12 12 0 004.5-9.4zm0-14.1a4.5 4.5 0 010 9zm-42 8.9a4.5 4.5 0 010-9zm22.9-36c2 0 5.7 1 5.7 4.3 0 .5-.4 1-1 1s-.8-.5-.8-1c0-2.4-4-2.5-4-2.5a1 1 0 01-.9-1c0-.5.5-.9 1-.9zm3 61.6c-1 1.8-2.8 3-5 3-2 0-3.9-1.2-4.9-3l-2-4c1 .3 2 .4 3 .4h7.9c1 0 2.1-.1 3.2-.5zm-6-20.5h2.3c1.9 0 3.4 1.4 3.2 2.9l-.4 3c-.3 1.6-2 2.8-4 2.8s-3.7-1.2-4-2.8l-.4-3c-.2-1.5 1.3-2.9 3.3-2.9zm14.4-1.2v.1a2.7 2.7 0 01-3.6.9l-.7-.5c-1.6-1-2.6-2.7-4.5-3.3a4 4 0 00-2.6 0c-1.2.5-2.6.5-3.8 0a4 4 0 00-2.7 0c-1.8.6-2.9 2.3-4.4 3.3v.1c-1.3.9-3 .5-3.8-.7a7 7 0 00-4.6-3V81c0-6.5 3.6-12.1 9-15.1l.1 1.5c.5 3.4 4 6 8.3 6 4.2 0 7.7-2.6 8.2-6l.2-1.6c5.3 3 8.9 8.6 8.9 15v13.4c-1.6.5-3 1.5-4 2.9z" fill="#2d3b48"/>
  <path d="M0 4a4 4 0 014-4h798a4 4 0 014 4v13H0z" fill="#ccd0d3"/>
  <circle cx="9.5" cy="8.5" fill="#fff" opacity=".3" r="3.5"/>
  <circle cx="20.5" cy="8.5" fill="#fff" opacity=".3" r="3.5"/>
  <circle cx="30.5" cy="8.5" fill="#fff" opacity=".3" r="3.5"/>
  <path d="M445 170a12 12 0 0112-12h94a13 13 0 0113 13v94a12 12 0 01-12 12h-95a12 12 0 01-12-12z" fill="#23435f" opacity=".3"/>
  <path d="M440 165a12 12 0 0112-12h94a13 13 0 0113 13v94a12 12 0 01-12 12h-95a12 12 0 01-12-12z" fill="#fff"/>
  <path clip-rule="evenodd" d="M496 179.3a22.2 22.2 0 0133 13.9 19.6 19.6 0 01-2.7 15.5 20.6 20.6 0 01-1 20.7 19.5 19.5 0 01-5.7 5.6l-17 10.8a22.2 22.2 0 01-33-14 19.6 19.6 0 012.7-15.5 20.6 20.6 0 011-20.6c1.4-2.2 3.4-4.2 5.7-5.6zm-9.5 61.2c2.5 1 5.3 1.1 7.9.4 1.2-.3 2.3-.8 3.4-1.5l16.5-10.8a11.6 11.6 0 005.2-7.9 12.8 12.8 0 00-2.1-9.4 12.8 12.8 0 00-14.1-5.4 12 12 0 00-3.4 1.5l-6.3 4.1c-.3.3-.7.4-1 .5a3.9 3.9 0 01-4.3-1.6 3.8 3.8 0 010-4.2c.2-.4.6-.8 1-1l16.5-10.9 1-.4a3.9 3.9 0 014.3 1.6c.5.7.7 1.6.6 2.5v.6l.6.2a21 21 0 016.5 3.4l.8.6.3-1a12.4 12.4 0 00.3-6.5c-.3-1.6-1-3.2-2-4.5-1.5-2.3-3.7-4-6.2-5a12.5 12.5 0 00-11.2 1.1l-16.6 10.9a11.6 11.6 0 00-5.1 7.8 12.9 12.9 0 002 9.5c1.6 2.3 3.8 4 6.3 5s5.3 1 7.9.4a12 12 0 003.3-1.6l6.3-4.1 1-.5a3.9 3.9 0 014.3 1.7 3.8 3.8 0 01.1 4.2l-1 1-16.6 10.8-1 .5a3.9 3.9 0 01-4.2-1.6c-.5-.8-.8-1.7-.7-2.6v-.6l-.6-.2c-2.3-.7-4.5-1.8-6.4-3.3l-.9-.7-.3 1a12 12 0 00-.3 6.6c.4 1.6 1 3.1 2 4.5 1.5 2.2 3.7 4 6.2 5z" fill="#ff3e00" fill-rule="evenodd"/>
  <circle cx="216.4" cy="222.2" fill="#cbdff1" r="41" transform="rotate(165 216.4 222.2)"/>
  <circle cx="298" cy="82" fill="#cbdff1" r="41" transform="rotate(30 298 82)"/>
  <path d="M161.2 257.7l27-15.5L183 223zM362.1 96l-30-8.1-10 17.3z" fill="#cbdff1"/>
  <circle cx="278.5" cy="84.5" fill="#fff" r="5.5"/>
  <circle cx="295.5" cy="84.5" fill="#fff" r="5.5"/>
  <circle cx="311.5" cy="84.5" fill="#fff" r="5.5"/>
  <path d="M214.8 229.3l-1.5-15V203h5.9v11.4l-1.4 14.9zm1.5 10.3a4 4 0 01-4.1-4c0-1.1.4-2 1.1-2.8.8-.8 1.8-1.2 3-1.2a4 4 0 012.9 1.2 3.9 3.9 0 010 5.7 4 4 0 01-3 1.1z" fill="#fff"/>
  <g fill="#2d3b48">
    <path d="M668 91.1a2 2 0 100-4.1 2 2 0 000 4.1zM682.2 91.1a2 2 0 100-4.1 2 2 0 000 4.1zM675.1 97.2c1 0 2-.4 2.7-1 .5-.6.5-1.4 0-2-.6-.4-1.4-.4-1.9 0-.2.3-.5.4-.8.4-.3 0-.6-.1-.8-.3-.5-.5-1.4-.5-1.9 0s-.5 1.3 0 1.8c.8.7 1.7 1.1 2.7 1.1z"/>
    <path d="M693.6 97.8h.9a7.8 7.8 0 00.6-15.5V79.7c0-8.1-5-15.1-12-18.2.7-1 1-2.1 1-3.4v-1c0-3.3-2.7-6.1-6-6.1h-5.9a6.2 6.2 0 00-6.2 6.2v1a6 6 0 001 3.4 20 20 0 00-11.8 18.3v2.4a7.8 7.8 0 00.6 15.5h.8c1.2 3.2 3.3 6 5.8 8l-4.8 3.3c-2.9 2-4.6 5.2-4.6 8.7v.2c0 4.9 3.3 9 8 10.2a59.6 59.6 0 0027.1.2l1-.3a10.5 10.5 0 003.4-19l-4.8-3.2a20 20 0 006-8zm1.4-7.3v-4.7a4.3 4.3 0 010 8.5zm-39.8 0v3.8a4.3 4.3 0 010-8.5zm28-9.7c.2-.5.7-.7 1.1-.6l1.5.3c.5 0 .8.5.8 1-.1.4-.5.7-.9.7h-.1c-.6 0-1.1-.2-1.7-.4a.9.9 0 01-.6-1zm-15.4-12c.4-.4 1-.3 1.2.1 0 .1 4.8 6.7 11.8 10 .4.2.6.7.4 1.1-.2.3-.5.5-.8.5a1 1 0 01-.4 0c-7.4-3.5-12.2-10.3-12.4-10.6a.8.8 0 01.2-1.2zm12.6 37.2l-.1.1h-.3l-.3.2h-.2l-.4.1h-.2l-.4.1-.6.2h-.5l-1.1.2h-1.7H674h-.6l-.5-.1h-.2l-.4-.1a19.9 19.9 0 01-.7-.2h-.4-.1l-.5-.2h-.2l-.3-.2h-.2-.2c-6.4-2.3-11-8.5-11-15.7v-6a15.7 15.7 0 009.2-7.7 24.9 24.9 0 0018.8 8.5h1.4c1.2 0 2.3-.1 3.5-.3v5.5c0 7.3-4.7 13.4-11.2 15.6z"/>
    <path d="M679.4 99.8a.8.8 0 00-.5-.1h-.2l-.6-.5-1-.7a3 3 0 00-2 .2c-.8-.3-1.4-.3-2-.2l-.5.3-.2.1-.1.1-.1.1-.1.1-.4.3v.1h-.1H671.3a1 1 0 00-.3.1c-.2 0-.4.2-.4.4v.5l.4.3h.2v.2l.2.2.1.1.1.2h.1v.1l.1.1.1.1.1.1.1.1.3.2v.1l.2.1a3.8 3.8 0 00.9.4l1.6.2c1.7 0 2.7-.5 3.5-1.7.3-.4.5-.5.6-.5l.2-.2c.2 0 .3-.2.3-.4s0-.4-.3-.5zm-8.5 1zM664.3 244.4a7.8 7.8 0 000-15.6v-4.1c0-9.8-7.9-17.7-17.7-17.7h-4.5c-9.9 0-18 8-18 17.9v4a7.8 7.8 0 00.1 15.5c.3 5.8 3.3 10.8 7.7 13.9l-5.2 3.5c-3 2-4.7 5.3-4.7 8.8v.1c0 5 3.3 9.2 8 10.3a60 60 0 0027.4.2l1-.3c4.8-1 8.1-5.3 8.1-10.3 0-3.5-1.7-6.8-4.7-8.8l-5.3-3.5c4.5-3 7.5-8 7.8-13.9zm3.7-7.8c0 2.2-1.6 4-3.7 4.3v-8.5c2.1.3 3.7 2 3.7 4.2zm-47.5 0c0-2.1 1.6-4 3.7-4.2v8.5c-2.1-.3-3.7-2.1-3.7-4.3zm28 24.8c.8 0 1.6 0 2.3-.2l-1.8 3.6a5.3 5.3 0 01-4.8 2.8c-2 0-3.8-1-4.7-2.8l-1.9-3.6 2.4.2h6.5zm3.5-4.6c-1.7.7-3.5 1.1-5.5 1.1H642c-2 0-3.8-.4-5.5-1V252c0-1.5 1.3-2.8 2.9-2.8h9.7c1.6 0 2.9 1.3 2.9 2.8zm3.5-2V252c0-3.5-2.9-6.3-6.4-6.3h-9.7a6.4 6.4 0 00-6.4 6.3v2.7a14.3 14.3 0 01-5.3-11v-.8-.3V225c0-8 6.4-14.4 14.3-14.4h4.6c7.8 0 14.2 6.4 14.2 14.2V243.6c0 4.5-2 8.5-5.3 11.1z"/>
    <path d="M637 237.5a2 2 0 100-4.2 2 2 0 000 4.2zM651.4 237.5a2 2 0 100-4.2 2 2 0 000 4.2zM647 251.7a16 16 0 01-5.5 0c-.7-.1-1.4.4-1.5 1-.1.8.4 1.5 1 1.6a22.1 22.1 0 006.4 0c.8-.2 1.2-.8 1-1.6 0-.7-.7-1.1-1.4-1zM645.3 241.4a.4.4 0 01-.4-.5v-6c0-.6-.6-1.2-1.4-1.2s-1.3.6-1.3 1.3v6a3 3 0 003 3c.8 0 1.4-.6 1.4-1.3s-.6-1.3-1.3-1.3zM641.3 228.3l-5.3-1.5c-1.8-.6-3.9-.2-5.5.9l-.2.1c-.6.4-.7 1.2-.3 1.8.4.6 1.2.8 1.8.4l.2-.2a4 4 0 013.3-.5l5.3 1.5h.4c.5 0 1-.3 1.2-.9.2-.7-.2-1.4-.9-1.6zM658.1 227.8l-.1-.1a6.5 6.5 0 00-5.6-1l-5.3 1.6c-.7.2-1 1-.9 1.6a1.3 1.3 0 001.7.9l5.3-1.5c1.1-.3 2.3-.2 3.3.5l.2.1c.6.5 1.4.3 1.8-.3.4-.6.2-1.4-.4-1.8zM719 251h-3c-.6 0-1 .4-1 1s.4 1 1 1h3c.6 0 1-.4 1-1s-.4-1-1-1zM735.2 264l-1-.6a8.2 8.2 0 00-11.6 3l-.3.6a5.3 5.3 0 01-4.8 2.9c-2 0-3.8-1-4.8-2.9l-.4-.7a8.1 8.1 0 00-11.7-3l-.9.7c-3 2-4.7 5.3-4.7 8.8v.2c0 5 3.4 9.2 8.2 10.3a60.8 60.8 0 0027.5.2l1-.2a10.6 10.6 0 003.5-19.3z"/>
    <path d="M739.2 230.2l1.7-16.5a8.6 8.6 0 00-8.6-9.7h-29.6a8.6 8.6 0 00-8.5 9.7l1.6 16.5a7.9 7.9 0 001.6 15.4l.1.7v.2l.1.7.2.7v.1l.2.7v.1l.2.6v.2l.3.6v.2l.3.6.3.7.4.7.3.6v.2l.4.5.1.2.4.5.4.6v.1l.5.6.4.5.1.1.5.6.5.5.5.5.1.1.6.5.5.5h.1l.6.4v.1l.6.4.6.4h.1l.6.4.7.4a6.6 6.6 0 00.8.4l.6.3c.3 0 .5.2.7.3h.1c.3 0 .5.2.7.3a7.6 7.6 0 0013 0l.7-.3h.1l.6-.3h.1l.6-.3h.1l.6-.4h.1c.2-.1.5-.2.6-.4.3 0 .5-.2.7-.3l.7-.5.5-.4h.1l.6-.5.6-.5.5-.5h.2l.4-.5.1-.1.4-.5h.1l.5-.6.5-.6.4-.6h.1l.4-.6v-.1l.4-.5v-.2l.4-.5v-.2a6 6 0 00.4-.6l.3-.6v-.1l.4-.7.2-.6v-.2l.3-.6v-.2l.2-.6.3-.8v-.1l.1-.7.2-.7v-.2-.7a7.9 7.9 0 007.5-7.8c0-3.7-2.4-6.7-5.8-7.6zm-42 10.7v1.2a4.4 4.4 0 010-8.7zm24.5 11l-.4 3c-.2 1.5-1.8 2.6-3.8 2.6-2 0-3.6-1.1-3.8-2.7l-.4-2.9c-.2-1.5 1.3-2.8 3.1-2.8h2.2c1.9 0 3.4 1.3 3.1 2.8zm12.6-8.8V244l-.1.7v.1l-.1.7-.1.8-.2.7-.2.7-.2.7-.2.7v.1l-.3.6v.1l-.3.6-.7 1.3-.4.6-.4.6-.5.6-.5.6c-1.5 1.7-4.5.4-4.2-2a6.1 6.1 0 00-5.6-6.8c.5-.5.5-1.3 0-1.8s-1.4-.5-1.9 0c-.2.2-.5.3-.8.3-.3 0-.6 0-.9-.3-.5-.5-1.3-.5-1.8 0s-.5 1.3-.1 1.8c-3.4.3-6 3.3-5.6 6.8.3 2.3-2.6 3.7-4.2 1.9l-.5-.6-.4-.6-.8-1.2-.4-.7-.3-.6-.4-.7-.2-.7-.3-.7-.2-.7-.2-.7v-.1l-.2-.7-.1-.8v-.7l-.1-.1v-.7-.1-3.5c1.5 2 4 3.4 6.8 3.5h.3c2.4 0 4.7-1 6.4-2.6 1.8-1.7 2.8-4 2.9-6.4.1-.2.3-.2.5 0v.1a9.3 9.3 0 009 8.8h.3a9.1 9.1 0 007.2-3.4zm-31.8-8.7l2.8-2.6c.4-.3 1-.3 1.3 0 .3.4.3 1-.1 1.3l-2.8 2.6-.6.2a1 1 0 01-.7-.3.9.9 0 010-1.2zm18.4 0l2.9-2.6c.3-.3.9-.3 1.2 0 .3.4.3 1 0 1.3l-2.9 2.6-.6.2a1 1 0 01-.6-.3.9.9 0 010-1.2zm13.4-4c-.8-.5-1.8-.8-2.8-.8h-8.9c-1.8 0-3.3 1-4.1 2.4-.6-.2-1.3-.2-1.9 0a4.8 4.8 0 00-4.2-2.4h-8.8c-1 0-2 .3-2.8.9v-.7a16.8 16.8 0 013.4-10 3.8 3.8 0 015.2-.2c2.1 1.9 5 3 8.1 3 3.2 0 6-1.2 8.2-3a3.8 3.8 0 015.2.1l1.5 2.3c1.2 2.3 1.9 4.9 1.9 7.6zm3.3-15.7c0 .5-.4.8-.9.8a.9.9 0 01-.8-.9c.3-5-4.3-5.8-4.5-5.8a.9.9 0 01-.7-1c0-.5.5-.8 1-.8 0 0 6.4 1 6 7.7zm.2 27.4v-8.6a4.4 4.4 0 010 8.6z"/>
  </g>
</svg>
