<svg width="415" height="21" viewBox="0 0 415 21" fill="none" xmlns="http://www.w3.org/2000/svg">
<path d="M7.59336 20.3241C5.9191 20.3241 4.46987 19.919 3.24568 19.1089C2.02149 18.2807 1.17536 17.1556 0.707282 15.7333L3.3537 14.7612C3.74976 15.6433 4.32585 16.3454 5.08197 16.8675C5.83808 17.3716 6.71122 17.6236 7.70138 17.6236C8.74554 17.6236 9.57367 17.3716 10.1858 16.8675C10.8159 16.3634 11.1309 15.6433 11.1309 14.7072C11.1309 14.3111 11.0409 13.9511 10.8609 13.627C10.6988 13.285 10.5098 13.0059 10.2938 12.7899C10.0777 12.5738 9.74469 12.3578 9.29462 12.1418C8.84455 11.9077 8.46649 11.7367 8.16045 11.6287C7.8724 11.5027 7.44033 11.3406 6.86424 11.1426C6.14413 10.8906 5.60405 10.6925 5.24399 10.5485C4.88393 10.4045 4.40686 10.1705 3.81277 9.84641C3.23668 9.50436 2.79561 9.17131 2.48956 8.84726C2.20152 8.5052 1.94047 8.06413 1.70644 7.52405C1.4724 6.98397 1.35538 6.38087 1.35538 5.71477C1.35538 4.32855 1.89547 3.15837 2.97564 2.20422C4.05581 1.25007 5.52303 0.772996 7.37732 0.772996C8.92557 0.772996 10.1948 1.11505 11.1849 1.79916C12.1931 2.48326 12.8682 3.3924 13.2102 4.52658L10.6178 5.39072C10.3658 4.81463 9.94273 4.35556 9.34863 4.0135C8.77254 3.65345 8.04343 3.47342 7.16129 3.47342C6.26115 3.47342 5.55004 3.67145 5.02796 4.06751C4.52388 4.46357 4.27184 5.02166 4.27184 5.74177C4.27184 6.22785 4.46987 6.65991 4.86593 7.03797C5.26199 7.41603 5.67606 7.69508 6.10813 7.8751C6.54019 8.05513 7.1973 8.29817 8.07943 8.60422C8.61952 8.80225 9.01558 8.95527 9.26762 9.06329C9.53766 9.1533 9.92472 9.31533 10.4288 9.54937C10.9329 9.7834 11.3199 9.99944 11.59 10.1975C11.86 10.3775 12.1751 10.6295 12.5351 10.9536C12.8952 11.2776 13.1652 11.6107 13.3453 11.9527C13.5433 12.2768 13.7053 12.6819 13.8313 13.1679C13.9754 13.636 14.0474 14.1401 14.0474 14.6802C14.0474 16.4444 13.4443 17.8307 12.2381 18.8388C11.0319 19.829 9.48365 20.3241 7.59336 20.3241ZM30.9077 20L24.4267 1.09705H27.4512L31.7448 14.2751C32.0149 15.1032 32.2129 15.8233 32.3389 16.4354C32.4649 15.8233 32.663 15.1032 32.933 14.2751L37.1727 1.09705H40.1702L33.7161 20H30.9077ZM51.7969 20V1.09705H63.5168V3.74346H54.6054V8.92827H60.3573V11.5747H54.6054V17.3536H64.1109V20H51.7969ZM76.6566 20V1.09705H79.4651V17.2996H88.7005V20H76.6566ZM105.213 3.79747V20H102.404V3.79747H97.0575V1.09705H110.56V3.79747H105.213ZM122.842 20V1.09705H134.562V3.74346H125.651V8.92827H131.403V11.5747H125.651V17.3536H135.156V20H122.842ZM168.637 20.3241C166.962 20.3241 165.513 19.919 164.289 19.1089C163.065 18.2807 162.219 17.1556 161.751 15.7333L164.397 14.7612C164.793 15.6433 165.369 16.3454 166.125 16.8675C166.881 17.3716 167.754 17.6236 168.745 17.6236C169.789 17.6236 170.617 17.3716 171.229 16.8675C171.859 16.3634 172.174 15.6433 172.174 14.7072C172.174 14.3111 172.084 13.9511 171.904 13.627C171.742 13.285 171.553 13.0059 171.337 12.7899C171.121 12.5738 170.788 12.3578 170.338 12.1418C169.888 11.9077 169.51 11.7367 169.204 11.6287C168.916 11.5027 168.484 11.3406 167.907 11.1426C167.187 10.8906 166.647 10.6925 166.287 10.5485C165.927 10.4045 165.45 10.1705 164.856 9.84641C164.28 9.50436 163.839 9.17131 163.533 8.84726C163.245 8.5052 162.984 8.06413 162.75 7.52405C162.516 6.98397 162.399 6.38087 162.399 5.71477C162.399 4.32855 162.939 3.15837 164.019 2.20422C165.099 1.25007 166.566 0.772996 168.421 0.772996C169.969 0.772996 171.238 1.11505 172.228 1.79916C173.236 2.48326 173.911 3.3924 174.253 4.52658L171.661 5.39072C171.409 4.81463 170.986 4.35556 170.392 4.0135C169.816 3.65345 169.087 3.47342 168.205 3.47342C167.304 3.47342 166.593 3.67145 166.071 4.06751C165.567 4.46357 165.315 5.02166 165.315 5.74177C165.315 6.22785 165.513 6.65991 165.909 7.03797C166.305 7.41603 166.719 7.69508 167.151 7.8751C167.583 8.05513 168.241 8.29817 169.123 8.60422C169.663 8.80225 170.059 8.95527 170.311 9.06329C170.581 9.1533 170.968 9.31533 171.472 9.54937C171.976 9.7834 172.363 9.99944 172.633 10.1975C172.903 10.3775 173.218 10.6295 173.578 10.9536C173.938 11.2776 174.208 11.6107 174.388 11.9527C174.587 12.2768 174.749 12.6819 174.875 13.1679C175.019 13.636 175.091 14.1401 175.091 14.6802C175.091 16.4444 174.488 17.8307 173.281 18.8388C172.075 19.829 170.527 20.3241 168.637 20.3241ZM198.517 19.757C197.563 20.135 196.501 20.3241 195.331 20.3241C194.161 20.3241 193.098 20.135 192.144 19.757C191.19 19.3789 190.407 18.8748 189.795 18.2447C189.183 17.6146 188.67 16.8675 188.256 16.0034C187.842 15.1392 187.544 14.2571 187.364 13.357C187.184 12.4568 187.094 11.5207 187.094 10.5485C187.094 9.57637 187.184 8.64022 187.364 7.74008C187.544 6.83994 187.842 5.95781 188.256 5.09367C188.67 4.22954 189.183 3.48242 189.795 2.85232C190.407 2.22222 191.19 1.71814 192.144 1.34008C193.098 0.962025 194.161 0.772996 195.331 0.772996C196.501 0.772996 197.563 0.962025 198.517 1.34008C199.471 1.71814 200.254 2.22222 200.867 2.85232C201.479 3.48242 201.992 4.22954 202.406 5.09367C202.82 5.95781 203.117 6.83994 203.297 7.74008C203.477 8.64022 203.567 9.57637 203.567 10.5485C203.567 11.5207 203.477 12.4568 203.297 13.357C203.117 14.2571 202.82 15.1392 202.406 16.0034C201.992 16.8675 201.479 17.6146 200.867 18.2447C200.254 18.8748 199.471 19.3789 198.517 19.757ZM192.846 17.0025C193.566 17.4166 194.395 17.6236 195.331 17.6236C196.267 17.6236 197.095 17.4076 197.815 16.9755C198.535 16.5255 199.093 15.9404 199.489 15.2203C199.885 14.5001 200.173 13.753 200.353 12.9789C200.552 12.1868 200.651 11.3767 200.651 10.5485C200.651 9.68439 200.552 8.85626 200.353 8.06413C200.173 7.25401 199.885 6.49789 199.489 5.79578C199.093 5.09367 198.535 4.53558 197.815 4.12152C197.095 3.68945 196.267 3.47342 195.331 3.47342C194.395 3.47342 193.566 3.69845 192.846 4.14852C192.126 4.58059 191.568 5.15668 191.172 5.87679C190.776 6.59691 190.479 7.35302 190.281 8.14515C190.101 8.91927 190.011 9.72039 190.011 10.5485C190.011 11.4127 190.101 12.2498 190.281 13.0599C190.479 13.852 190.776 14.5992 191.172 15.3013C191.568 16.0034 192.126 16.5705 192.846 17.0025ZM223.583 20.3241C222.449 20.3241 221.423 20.135 220.505 19.757C219.605 19.3789 218.858 18.8748 218.264 18.2447C217.688 17.6146 217.201 16.8675 216.805 16.0034C216.409 15.1392 216.13 14.2571 215.968 13.357C215.806 12.4568 215.725 11.5207 215.725 10.5485C215.725 9.39634 215.869 8.27117 216.157 7.173C216.445 6.07482 216.877 5.03966 217.453 4.06751C218.048 3.07736 218.867 2.28523 219.911 1.69114C220.973 1.07904 222.197 0.772996 223.583 0.772996C225.24 0.772996 226.617 1.14205 227.715 1.88017C228.813 2.60028 229.578 3.48242 230.01 4.52658L227.445 5.71477C226.959 4.94065 226.419 4.37356 225.825 4.0135C225.249 3.65345 224.502 3.47342 223.583 3.47342C222.683 3.47342 221.9 3.68945 221.234 4.12152C220.568 4.55359 220.055 5.12968 219.695 5.84979C219.335 6.5699 219.065 7.32602 218.885 8.11814C218.723 8.89226 218.642 9.70239 218.642 10.5485C218.642 12.4208 219.065 14.0681 219.911 15.4903C220.757 16.9125 221.981 17.6236 223.583 17.6236C225.168 17.6236 226.446 16.8135 227.418 15.1932L230.037 16.1924C228.849 18.9468 226.698 20.3241 223.583 20.3241ZM242.74 20V1.09705H245.548V20H242.74ZM259.184 20V1.09705H270.904V3.74346H261.992V8.92827H267.744V11.5747H261.992V17.3536H271.498V20H259.184ZM290.984 3.79747V20H288.175V3.79747H282.829V1.09705H296.331V3.79747H290.984ZM313.771 20V12.6008L307.128 1.09705H310.342L315.175 9.7384L320.009 1.09705H323.223L316.58 12.5738V20H313.771ZM349.287 1.09705H354.58C356.165 1.09705 357.551 1.36709 358.739 1.90717C359.945 2.44726 360.89 3.17637 361.574 4.09451C362.258 5.01266 362.763 6.01181 363.087 7.09198C363.429 8.17215 363.6 9.32433 363.6 10.5485C363.6 11.7187 363.438 12.8349 363.114 13.897C362.808 14.9412 362.321 15.9404 361.655 16.8945C360.989 17.8307 360.035 18.5868 358.793 19.1629C357.569 19.721 356.129 20 354.472 20H349.287V1.09705ZM354.931 17.3536C355.957 17.3536 356.858 17.1556 357.632 16.7595C358.406 16.3454 359.009 15.8053 359.441 15.1392C359.873 14.4551 360.188 13.735 360.386 12.9789C360.584 12.2048 360.683 11.3947 360.683 10.5485C360.683 8.65823 360.224 7.05598 359.306 5.74177C358.388 4.40956 357.029 3.74346 355.228 3.74346H352.096V17.3536H354.931ZM387.516 20L386.004 15.6523H378.361L376.822 20H373.906L380.738 1.09705H383.627L390.432 20H387.516ZM385.14 13.1679L382.844 6.74093C382.52 5.85879 382.304 5.14768 382.196 4.60759C382.034 5.2557 381.818 5.96681 381.548 6.74093L379.226 13.1679H385.14ZM405.246 20V12.6008L398.603 1.09705H401.816L406.65 9.7384L411.484 1.09705H414.697L408.054 12.5738V20H405.246Z" fill="#4A4A55"/>
</svg>
